<mxfile host="Electron" modified="2023-08-15T14:49:36.306Z" agent="Mozilla/5.0 (Windows NT 10.0; Win64; x64) AppleWebKit/537.36 (KHTML, like Gecko) draw.io/21.6.8 Chrome/114.0.5735.289 Electron/25.5.0 Safari/537.36" etag="dQkq0Nhe4QC2WJ6lMQmj" version="21.6.8" type="device">
  <diagram name="DFD" id="5_61t0FBoaMEpGLpQEM9">
    <mxGraphModel dx="1595" dy="1138" grid="1" gridSize="10" guides="1" tooltips="1" connect="0" arrows="0" fold="1" page="0" pageScale="1" pageWidth="850" pageHeight="1100" math="0" shadow="0">
      <root>
        <mxCell id="0" />
        <mxCell id="1" parent="0" />
        <object label="0&#xa;&#xa;&#xa;&#xa;HỆ THỐNG QUẢN LÝ WEBSITE BÁN THỨC ĂN NHANH" id="FuuGoD6Wg4kEkZDujQi--1">
          <mxCell style="swimlane;fontStyle=1;childLayout=stackLayout;horizontal=1;startSize=70;fillColor=#bac8d3;horizontalStack=0;resizeParent=1;resizeParentMax=0;resizeLast=0;collapsible=0;marginBottom=0;swimlaneFillColor=#bac8d3;fillStyle=auto;rounded=1;glass=0;shadow=0;swimlaneLine=1;whiteSpace=wrap;verticalAlign=top;fontSize=13;align=center;labelPosition=center;verticalLabelPosition=middle;labelBorderColor=none;labelBackgroundColor=none;rotation=0;spacing=33;strokeColor=#23445d;spacingTop=0;spacingBottom=0;fontFamily=Times New Roman;" parent="1" vertex="1">
            <mxGeometry x="80" y="80" width="240" height="200" as="geometry" />
          </mxCell>
        </object>
        <mxCell id="FuuGoD6Wg4kEkZDujQi--2" value="NHÂN VIÊN KHO" style="html=1;dashed=0;whiteSpace=wrap;fontStyle=1;fillColor=#f5f5f5;fontColor=#333333;strokeColor=#FFC000;fontSize=15;fontFamily=Times New Roman;strokeWidth=2;" parent="1" vertex="1">
          <mxGeometry x="480" y="380" width="160" height="80" as="geometry" />
        </mxCell>
        <mxCell id="FuuGoD6Wg4kEkZDujQi--3" value="&amp;nbsp;NHÂN VIÊN QUẢN LÝ" style="html=1;dashed=0;whiteSpace=wrap;fontStyle=1;fillColor=#f5f5f5;fontColor=#333333;strokeColor=#4472C4;fontSize=15;fontFamily=Times New Roman;strokeWidth=2;" parent="1" vertex="1">
          <mxGeometry x="-245" y="140" width="160" height="80" as="geometry" />
        </mxCell>
        <mxCell id="FuuGoD6Wg4kEkZDujQi--4" value="NHÂN VIÊN VẬN CHUYỂN" style="html=1;dashed=0;whiteSpace=wrap;fontStyle=1;fillColor=#f5f5f5;fontColor=#333333;strokeColor=#7030A0;fontSize=15;fontFamily=Times New Roman;strokeWidth=2;" parent="1" vertex="1">
          <mxGeometry x="-240" y="-190" width="160" height="80" as="geometry" />
        </mxCell>
        <mxCell id="FuuGoD6Wg4kEkZDujQi--5" value="KHÁCH" style="html=1;dashed=0;whiteSpace=wrap;fontStyle=1;fillColor=#f5f5f5;fontColor=#333333;strokeColor=#00B050;fontSize=15;fontFamily=Times New Roman;strokeWidth=2;" parent="1" vertex="1">
          <mxGeometry x="480" y="-101" width="160" height="80" as="geometry" />
        </mxCell>
        <mxCell id="FuuGoD6Wg4kEkZDujQi--6" value="NHÂN VIÊN KỸ THUẬT" style="html=1;dashed=0;whiteSpace=wrap;fontStyle=1;fillColor=#f5f5f5;strokeColor=#ED8137;fontColor=#333333;fontSize=15;fontFamily=Times New Roman;strokeWidth=2;" parent="1" vertex="1">
          <mxGeometry x="-240" y="460" width="160" height="80" as="geometry" />
        </mxCell>
        <mxCell id="FuuGoD6Wg4kEkZDujQi--7" value="NHÂN VIÊN" style="html=1;dashed=0;whiteSpace=wrap;fontStyle=1;fillColor=#f5f5f5;fontColor=#333333;strokeColor=#FF0000;fontSize=15;fontFamily=Times New Roman;strokeWidth=2;" parent="1" vertex="1">
          <mxGeometry x="480" y="140" width="160" height="80" as="geometry" />
        </mxCell>
        <mxCell id="FuuGoD6Wg4kEkZDujQi--8" value="" style="endArrow=classic;html=1;rounded=0;edgeStyle=orthogonalEdgeStyle;strokeColor=#00B050;fontSize=12;jumpStyle=arc;fontStyle=1;fontFamily=Times New Roman;" parent="1" source="FuuGoD6Wg4kEkZDujQi--1" target="FuuGoD6Wg4kEkZDujQi--5" edge="1">
          <mxGeometry width="50" height="50" relative="1" as="geometry">
            <mxPoint x="240" y="-170.00000000000023" as="sourcePoint" />
            <mxPoint x="400" y="-170" as="targetPoint" />
            <Array as="points">
              <mxPoint x="240" y="-120" />
              <mxPoint x="560" y="-120" />
            </Array>
          </mxGeometry>
        </mxCell>
        <mxCell id="FuuGoD6Wg4kEkZDujQi--9" value="Thông tin khách hàng" style="text;html=1;align=center;verticalAlign=middle;resizable=0;points=[];autosize=1;strokeColor=none;fillColor=none;fontSize=12;rotation=0;fontStyle=1;fontFamily=Times New Roman;" parent="1" vertex="1">
          <mxGeometry x="300" y="-116" width="140" height="30" as="geometry" />
        </mxCell>
        <mxCell id="FuuGoD6Wg4kEkZDujQi--10" value="Tài khoản thành viên" style="text;html=1;align=center;verticalAlign=middle;resizable=0;points=[];autosize=1;strokeColor=none;fillColor=none;fontSize=12;rotation=0;fontStyle=1;fontFamily=Times New Roman;" parent="1" vertex="1">
          <mxGeometry x="320" y="-146" width="130" height="30" as="geometry" />
        </mxCell>
        <mxCell id="FuuGoD6Wg4kEkZDujQi--11" value="Thông tin đơn hàng" style="text;html=1;align=center;verticalAlign=middle;resizable=0;points=[];autosize=1;strokeColor=none;fillColor=none;fontSize=12;rotation=0;fontStyle=1;fontFamily=Times New Roman;" parent="1" vertex="1">
          <mxGeometry x="315" y="-55" width="130" height="30" as="geometry" />
        </mxCell>
        <mxCell id="FuuGoD6Wg4kEkZDujQi--12" value="Hóa đơn" style="text;html=1;align=center;verticalAlign=middle;resizable=0;points=[];autosize=1;strokeColor=none;fillColor=none;fontSize=12;rotation=0;fontStyle=1;fontFamily=Times New Roman;" parent="1" vertex="1">
          <mxGeometry x="385" y="-25" width="70" height="30" as="geometry" />
        </mxCell>
        <mxCell id="FuuGoD6Wg4kEkZDujQi--13" value="Thông tin sự cố" style="text;html=1;align=center;verticalAlign=middle;resizable=0;points=[];autosize=1;strokeColor=none;fillColor=none;fontSize=12;rotation=0;fontStyle=1;fontFamily=Times New Roman;" parent="1" vertex="1">
          <mxGeometry x="330" y="-76" width="100" height="30" as="geometry" />
        </mxCell>
        <mxCell id="FuuGoD6Wg4kEkZDujQi--14" value="Thông tin giải quyết sự cố" style="text;html=1;align=center;verticalAlign=middle;resizable=0;points=[];autosize=1;strokeColor=none;fillColor=none;fontSize=12;rotation=0;fontStyle=1;fontFamily=Times New Roman;" parent="1" vertex="1">
          <mxGeometry x="290" y="-95" width="160" height="30" as="geometry" />
        </mxCell>
        <mxCell id="FuuGoD6Wg4kEkZDujQi--15" value="" style="endArrow=classic;html=1;rounded=0;strokeColor=#4472C4;edgeStyle=orthogonalEdgeStyle;fontSize=12;fontStyle=1;fontFamily=Times New Roman;" parent="1" source="FuuGoD6Wg4kEkZDujQi--1" target="FuuGoD6Wg4kEkZDujQi--3" edge="1">
          <mxGeometry width="50" height="50" relative="1" as="geometry">
            <mxPoint x="70" y="125" as="sourcePoint" />
            <mxPoint x="-70" y="125" as="targetPoint" />
            <Array as="points">
              <mxPoint y="150" />
              <mxPoint y="150" />
            </Array>
          </mxGeometry>
        </mxCell>
        <mxCell id="FuuGoD6Wg4kEkZDujQi--16" value="" style="endArrow=classic;html=1;rounded=0;strokeColor=#4472C4;edgeStyle=orthogonalEdgeStyle;fontSize=12;fontStyle=1;fontFamily=Times New Roman;" parent="1" source="FuuGoD6Wg4kEkZDujQi--3" target="FuuGoD6Wg4kEkZDujQi--1" edge="1">
          <mxGeometry width="50" height="50" relative="1" as="geometry">
            <mxPoint x="-70" y="160" as="sourcePoint" />
            <mxPoint x="90" y="160" as="targetPoint" />
            <Array as="points">
              <mxPoint y="170" />
              <mxPoint y="170" />
            </Array>
          </mxGeometry>
        </mxCell>
        <mxCell id="FuuGoD6Wg4kEkZDujQi--17" value="" style="endArrow=classic;html=1;rounded=0;strokeColor=#4472C4;edgeStyle=orthogonalEdgeStyle;fontSize=12;fontStyle=1;fontFamily=Times New Roman;" parent="1" source="FuuGoD6Wg4kEkZDujQi--1" target="FuuGoD6Wg4kEkZDujQi--3" edge="1">
          <mxGeometry width="50" height="50" relative="1" as="geometry">
            <mxPoint x="90" y="180" as="sourcePoint" />
            <mxPoint x="-70" y="180" as="targetPoint" />
            <Array as="points">
              <mxPoint y="190" />
              <mxPoint y="190" />
            </Array>
          </mxGeometry>
        </mxCell>
        <mxCell id="FuuGoD6Wg4kEkZDujQi--18" value="" style="endArrow=classic;html=1;rounded=0;strokeColor=#4472C4;edgeStyle=orthogonalEdgeStyle;fontSize=12;fontStyle=1;fontFamily=Times New Roman;" parent="1" source="FuuGoD6Wg4kEkZDujQi--3" target="FuuGoD6Wg4kEkZDujQi--1" edge="1">
          <mxGeometry width="50" height="50" relative="1" as="geometry">
            <mxPoint x="-70" y="200" as="sourcePoint" />
            <mxPoint x="90" y="200" as="targetPoint" />
            <Array as="points">
              <mxPoint y="210" />
              <mxPoint y="210" />
            </Array>
          </mxGeometry>
        </mxCell>
        <mxCell id="FuuGoD6Wg4kEkZDujQi--19" value="Thông tin khách hàng" style="text;html=1;align=center;verticalAlign=middle;resizable=0;points=[];autosize=1;strokeColor=none;fillColor=none;fontSize=12;rotation=0;fontStyle=1;fontFamily=Times New Roman;" parent="1" vertex="1">
          <mxGeometry x="-70" y="125" width="140" height="30" as="geometry" />
        </mxCell>
        <mxCell id="FuuGoD6Wg4kEkZDujQi--20" value="Thông tin tài khoản khách hàng" style="text;html=1;align=center;verticalAlign=middle;resizable=0;points=[];autosize=1;strokeColor=none;fillColor=none;fontSize=12;rotation=0;fontStyle=1;fontFamily=Times New Roman;" parent="1" vertex="1">
          <mxGeometry x="-98" y="145" width="190" height="30" as="geometry" />
        </mxCell>
        <mxCell id="FuuGoD6Wg4kEkZDujQi--21" value="Thông tin nhân viên" style="text;html=1;align=center;verticalAlign=middle;resizable=0;points=[];autosize=1;strokeColor=none;fillColor=none;fontSize=12;rotation=0;fontStyle=1;fontFamily=Times New Roman;" parent="1" vertex="1">
          <mxGeometry x="-65" y="165" width="130" height="30" as="geometry" />
        </mxCell>
        <mxCell id="FuuGoD6Wg4kEkZDujQi--22" value="Thông tin tài khoản nhân viên" style="text;html=1;align=center;verticalAlign=middle;resizable=0;points=[];autosize=1;strokeColor=none;fillColor=none;fontSize=12;rotation=0;fontStyle=1;fontFamily=Times New Roman;" parent="1" vertex="1">
          <mxGeometry x="-90" y="185" width="180" height="30" as="geometry" />
        </mxCell>
        <mxCell id="FuuGoD6Wg4kEkZDujQi--23" value="" style="endArrow=classic;html=1;rounded=0;strokeColor=#4472C4;edgeStyle=orthogonalEdgeStyle;fontSize=12;fontStyle=1;fontFamily=Times New Roman;" parent="1" source="FuuGoD6Wg4kEkZDujQi--3" target="FuuGoD6Wg4kEkZDujQi--1" edge="1">
          <mxGeometry width="50" height="50" relative="1" as="geometry">
            <mxPoint x="-220" y="109.70999999999998" as="sourcePoint" />
            <mxPoint x="-80" y="109.70999999999998" as="targetPoint" />
            <Array as="points">
              <mxPoint x="-100" y="120" />
            </Array>
          </mxGeometry>
        </mxCell>
        <mxCell id="FuuGoD6Wg4kEkZDujQi--24" value="" style="endArrow=classic;html=1;rounded=0;strokeColor=#4472C4;edgeStyle=orthogonalEdgeStyle;fontSize=12;fontStyle=1;fontFamily=Times New Roman;" parent="1" source="FuuGoD6Wg4kEkZDujQi--3" target="FuuGoD6Wg4kEkZDujQi--1" edge="1">
          <mxGeometry width="50" height="50" relative="1" as="geometry">
            <mxPoint x="-130" y="280" as="sourcePoint" />
            <mxPoint x="10" y="280" as="targetPoint" />
            <Array as="points">
              <mxPoint x="-100" y="240" />
            </Array>
          </mxGeometry>
        </mxCell>
        <mxCell id="FuuGoD6Wg4kEkZDujQi--25" value="Thông tin tra cứu khách hàng" style="text;html=1;align=center;verticalAlign=middle;resizable=0;points=[];autosize=1;strokeColor=none;fillColor=none;fontSize=12;rotation=0;fontStyle=1;fontFamily=Times New Roman;" parent="1" vertex="1">
          <mxGeometry x="-100" y="95" width="180" height="30" as="geometry" />
        </mxCell>
        <mxCell id="FuuGoD6Wg4kEkZDujQi--26" value="Thông tin tra cứu nhân viên" style="text;html=1;align=center;verticalAlign=middle;resizable=0;points=[];autosize=1;strokeColor=none;fillColor=none;fontSize=12;rotation=0;fontStyle=1;fontFamily=Times New Roman;" parent="1" vertex="1">
          <mxGeometry x="-105" y="215" width="170" height="30" as="geometry" />
        </mxCell>
        <mxCell id="FuuGoD6Wg4kEkZDujQi--27" value="" style="endArrow=classic;html=1;rounded=0;strokeColor=#4472C4;edgeStyle=orthogonalEdgeStyle;fontSize=12;fontStyle=1;fontFamily=Times New Roman;" parent="1" source="FuuGoD6Wg4kEkZDujQi--1" target="FuuGoD6Wg4kEkZDujQi--3" edge="1">
          <mxGeometry width="50" height="50" relative="1" as="geometry">
            <mxPoint x="-80" y="69.99999999999999" as="sourcePoint" />
            <mxPoint x="-220" y="69.99999999999999" as="targetPoint" />
            <Array as="points">
              <mxPoint x="-110" y="100" />
            </Array>
          </mxGeometry>
        </mxCell>
        <mxCell id="FuuGoD6Wg4kEkZDujQi--28" value="Kết quả tra cứu&amp;nbsp;thông tin khách hàng" style="text;html=1;align=center;verticalAlign=middle;resizable=0;points=[];autosize=1;strokeColor=none;fillColor=none;fontSize=12;rotation=0;fontStyle=1;fontFamily=Times New Roman;" parent="1" vertex="1">
          <mxGeometry x="-127" y="75" width="220" height="30" as="geometry" />
        </mxCell>
        <mxCell id="FuuGoD6Wg4kEkZDujQi--29" value="" style="endArrow=classic;html=1;rounded=0;strokeColor=#4472C4;edgeStyle=orthogonalEdgeStyle;fontSize=12;fontStyle=1;fontFamily=Times New Roman;" parent="1" source="FuuGoD6Wg4kEkZDujQi--1" target="FuuGoD6Wg4kEkZDujQi--3" edge="1">
          <mxGeometry width="50" height="50" relative="1" as="geometry">
            <mxPoint x="90" y="250" as="sourcePoint" />
            <mxPoint x="-80" y="230" as="targetPoint" />
            <Array as="points">
              <mxPoint x="-110" y="260" />
            </Array>
          </mxGeometry>
        </mxCell>
        <mxCell id="FuuGoD6Wg4kEkZDujQi--30" value="Kết quả tra cứu&amp;nbsp;thông tin nhân viên" style="text;html=1;align=center;verticalAlign=middle;resizable=0;points=[];autosize=1;strokeColor=none;fillColor=none;fontSize=12;rotation=0;fontStyle=1;fontFamily=Times New Roman;" parent="1" vertex="1">
          <mxGeometry x="-120" y="235" width="210" height="30" as="geometry" />
        </mxCell>
        <mxCell id="FuuGoD6Wg4kEkZDujQi--31" value="" style="endArrow=classic;html=1;rounded=0;strokeColor=#4472C4;edgeStyle=orthogonalEdgeStyle;fontSize=12;fontStyle=1;fontFamily=Times New Roman;" parent="1" source="FuuGoD6Wg4kEkZDujQi--3" target="FuuGoD6Wg4kEkZDujQi--1" edge="1">
          <mxGeometry width="50" height="50" relative="1" as="geometry">
            <mxPoint x="-160" y="50" as="sourcePoint" />
            <mxPoint x="-20" y="50" as="targetPoint" />
            <Array as="points">
              <mxPoint x="-120" y="60" />
              <mxPoint x="110" y="60" />
            </Array>
          </mxGeometry>
        </mxCell>
        <mxCell id="FuuGoD6Wg4kEkZDujQi--32" value="Thông tin tra cứu ưu đãi, khuyến mãi" style="text;html=1;align=center;verticalAlign=middle;resizable=0;points=[];autosize=1;strokeColor=none;fillColor=none;fontSize=12;rotation=0;fontStyle=1;fontFamily=Times New Roman;" parent="1" vertex="1">
          <mxGeometry x="-122" y="35" width="220" height="30" as="geometry" />
        </mxCell>
        <mxCell id="FuuGoD6Wg4kEkZDujQi--33" value="" style="endArrow=classic;html=1;rounded=0;strokeColor=#4472C4;edgeStyle=orthogonalEdgeStyle;fontSize=12;fontStyle=1;fontFamily=Times New Roman;" parent="1" source="FuuGoD6Wg4kEkZDujQi--1" target="FuuGoD6Wg4kEkZDujQi--3" edge="1">
          <mxGeometry width="50" height="50" relative="1" as="geometry">
            <mxPoint x="90" y="270" as="sourcePoint" />
            <mxPoint x="-100" y="230" as="targetPoint" />
            <Array as="points">
              <mxPoint x="120" y="300" />
              <mxPoint x="-120" y="300" />
            </Array>
          </mxGeometry>
        </mxCell>
        <mxCell id="FuuGoD6Wg4kEkZDujQi--34" value="Kết quả tra cứu khuyến mãi" style="text;html=1;align=center;verticalAlign=middle;resizable=0;points=[];autosize=1;strokeColor=none;fillColor=none;fontSize=12;rotation=0;fontStyle=1;fontFamily=Times New Roman;" parent="1" vertex="1">
          <mxGeometry x="-90" y="275" width="170" height="30" as="geometry" />
        </mxCell>
        <mxCell id="FuuGoD6Wg4kEkZDujQi--35" value="" style="endArrow=classic;html=1;rounded=0;strokeColor=#4472C4;edgeStyle=orthogonalEdgeStyle;fontSize=12;fontStyle=1;fontFamily=Times New Roman;" parent="1" source="FuuGoD6Wg4kEkZDujQi--1" target="FuuGoD6Wg4kEkZDujQi--3" edge="1">
          <mxGeometry width="50" height="50" relative="1" as="geometry">
            <mxPoint x="140" y="290" as="sourcePoint" />
            <mxPoint x="-120" y="230" as="targetPoint" />
            <Array as="points">
              <mxPoint x="130" y="320" />
              <mxPoint x="-130" y="320" />
            </Array>
          </mxGeometry>
        </mxCell>
        <mxCell id="FuuGoD6Wg4kEkZDujQi--36" value="" style="endArrow=classic;html=1;rounded=0;strokeColor=#4472C4;edgeStyle=orthogonalEdgeStyle;fontSize=12;fontStyle=1;fontFamily=Times New Roman;" parent="1" source="FuuGoD6Wg4kEkZDujQi--1" target="FuuGoD6Wg4kEkZDujQi--3" edge="1">
          <mxGeometry width="50" height="50" relative="1" as="geometry">
            <mxPoint x="150" y="290" as="sourcePoint" />
            <mxPoint x="-140" y="230" as="targetPoint" />
            <Array as="points">
              <mxPoint x="140" y="340" />
              <mxPoint x="-140" y="340" />
            </Array>
          </mxGeometry>
        </mxCell>
        <mxCell id="FuuGoD6Wg4kEkZDujQi--37" value="" style="endArrow=classic;html=1;rounded=0;strokeColor=#4472C4;edgeStyle=orthogonalEdgeStyle;fontSize=12;fontStyle=1;fontFamily=Times New Roman;" parent="1" source="FuuGoD6Wg4kEkZDujQi--1" target="FuuGoD6Wg4kEkZDujQi--3" edge="1">
          <mxGeometry width="50" height="50" relative="1" as="geometry">
            <mxPoint x="160" y="290" as="sourcePoint" />
            <mxPoint x="-160" y="230" as="targetPoint" />
            <Array as="points">
              <mxPoint x="150" y="360" />
              <mxPoint x="-160" y="360" />
            </Array>
          </mxGeometry>
        </mxCell>
        <mxCell id="FuuGoD6Wg4kEkZDujQi--38" value="Bảng thống kê món ăn" style="text;html=1;align=center;verticalAlign=middle;resizable=0;points=[];autosize=1;strokeColor=none;fillColor=none;fontSize=12;rotation=0;fontStyle=1;fontFamily=Times New Roman;" parent="1" vertex="1">
          <mxGeometry x="-80" y="295" width="140" height="30" as="geometry" />
        </mxCell>
        <mxCell id="FuuGoD6Wg4kEkZDujQi--39" value="Bảng thống kê doanh thu" style="text;html=1;align=center;verticalAlign=middle;resizable=0;points=[];autosize=1;strokeColor=none;fillColor=none;fontSize=12;rotation=0;fontStyle=1;fontFamily=Times New Roman;" parent="1" vertex="1">
          <mxGeometry x="-85" y="315" width="150" height="30" as="geometry" />
        </mxCell>
        <mxCell id="FuuGoD6Wg4kEkZDujQi--40" value="Bảng thống kê số lượng đơn hàng" style="text;html=1;align=center;verticalAlign=middle;resizable=0;points=[];autosize=1;strokeColor=none;fillColor=none;fontSize=12;rotation=0;fontStyle=1;fontFamily=Times New Roman;" parent="1" vertex="1">
          <mxGeometry x="-110" y="335" width="200" height="30" as="geometry" />
        </mxCell>
        <mxCell id="FuuGoD6Wg4kEkZDujQi--41" value="" style="endArrow=classic;html=1;rounded=0;strokeColor=#4472C4;edgeStyle=orthogonalEdgeStyle;fontSize=12;fontStyle=1;fontFamily=Times New Roman;" parent="1" source="FuuGoD6Wg4kEkZDujQi--3" target="FuuGoD6Wg4kEkZDujQi--1" edge="1">
          <mxGeometry width="50" height="50" relative="1" as="geometry">
            <mxPoint x="-120" y="150" as="sourcePoint" />
            <mxPoint x="120" y="90" as="targetPoint" />
            <Array as="points">
              <mxPoint x="-130" y="40" />
              <mxPoint x="120" y="40" />
            </Array>
          </mxGeometry>
        </mxCell>
        <mxCell id="FuuGoD6Wg4kEkZDujQi--42" value="Yêu cầu thống kê" style="text;html=1;align=center;verticalAlign=middle;resizable=0;points=[];autosize=1;strokeColor=none;fillColor=none;fontSize=12;rotation=0;fontStyle=1;fontFamily=Times New Roman;" parent="1" vertex="1">
          <mxGeometry x="-67" y="15" width="110" height="30" as="geometry" />
        </mxCell>
        <mxCell id="FuuGoD6Wg4kEkZDujQi--43" value="" style="endArrow=classic;html=1;rounded=0;strokeColor=#4472C4;edgeStyle=orthogonalEdgeStyle;fontSize=12;fontStyle=1;fontFamily=Times New Roman;" parent="1" source="FuuGoD6Wg4kEkZDujQi--3" target="FuuGoD6Wg4kEkZDujQi--1" edge="1">
          <mxGeometry width="50" height="50" relative="1" as="geometry">
            <mxPoint x="-140" y="150" as="sourcePoint" />
            <mxPoint x="130" y="90" as="targetPoint" />
            <Array as="points">
              <mxPoint x="-140" y="20" />
              <mxPoint x="130" y="20" />
            </Array>
          </mxGeometry>
        </mxCell>
        <mxCell id="FuuGoD6Wg4kEkZDujQi--44" value="Thông tin ưu đãi, khuyến mãi" style="text;html=1;align=center;verticalAlign=middle;resizable=0;points=[];autosize=1;strokeColor=none;fillColor=none;fontSize=12;rotation=0;fontStyle=1;fontFamily=Times New Roman;" parent="1" vertex="1">
          <mxGeometry x="-107" y="-5" width="180" height="30" as="geometry" />
        </mxCell>
        <mxCell id="FuuGoD6Wg4kEkZDujQi--45" value="" style="endArrow=classic;html=1;rounded=0;edgeStyle=orthogonalEdgeStyle;strokeColor=#ED8137;fontSize=12;jumpStyle=arc;fontFamily=Times New Roman;fontStyle=1" parent="1" source="FuuGoD6Wg4kEkZDujQi--6" target="FuuGoD6Wg4kEkZDujQi--1" edge="1">
          <mxGeometry width="50" height="50" relative="1" as="geometry">
            <mxPoint x="-50" y="510" as="sourcePoint" />
            <mxPoint x="140" y="530" as="targetPoint" />
            <Array as="points">
              <mxPoint x="210" y="480" />
            </Array>
          </mxGeometry>
        </mxCell>
        <mxCell id="FuuGoD6Wg4kEkZDujQi--46" value="" style="endArrow=classic;html=1;rounded=0;edgeStyle=orthogonalEdgeStyle;strokeColor=#FFC000;fontSize=12;jumpStyle=arc;fontFamily=Times New Roman;fontStyle=1" parent="1" source="FuuGoD6Wg4kEkZDujQi--1" target="FuuGoD6Wg4kEkZDujQi--2" edge="1">
          <mxGeometry width="50" height="50" relative="1" as="geometry">
            <mxPoint x="280" y="485" as="sourcePoint" />
            <mxPoint x="430" y="485" as="targetPoint" />
            <Array as="points">
              <mxPoint x="290" y="360" />
              <mxPoint x="560" y="360" />
            </Array>
          </mxGeometry>
        </mxCell>
        <mxCell id="FuuGoD6Wg4kEkZDujQi--47" value="" style="endArrow=classic;html=1;rounded=0;edgeStyle=orthogonalEdgeStyle;strokeColor=#7030A0;fontSize=12;jumpStyle=arc;fontFamily=Times New Roman;fontStyle=1" parent="1" source="FuuGoD6Wg4kEkZDujQi--1" target="FuuGoD6Wg4kEkZDujQi--4" edge="1">
          <mxGeometry width="50" height="50" relative="1" as="geometry">
            <mxPoint x="-70" y="-230" as="sourcePoint" />
            <mxPoint x="-120" y="-360" as="targetPoint" />
            <Array as="points">
              <mxPoint x="220" y="-170" />
            </Array>
          </mxGeometry>
        </mxCell>
        <mxCell id="FuuGoD6Wg4kEkZDujQi--48" value="" style="endArrow=classic;html=1;rounded=0;edgeStyle=orthogonalEdgeStyle;strokeColor=#FF0000;fontSize=12;jumpStyle=arc;fontFamily=Times New Roman;fontStyle=1" parent="1" source="FuuGoD6Wg4kEkZDujQi--1" target="FuuGoD6Wg4kEkZDujQi--7" edge="1">
          <mxGeometry width="50" height="50" relative="1" as="geometry">
            <mxPoint x="285" y="-290" as="sourcePoint" />
            <mxPoint x="435" y="-290" as="targetPoint" />
            <Array as="points">
              <mxPoint x="570" y="100" />
            </Array>
          </mxGeometry>
        </mxCell>
        <mxCell id="FuuGoD6Wg4kEkZDujQi--49" value="" style="endArrow=classic;html=1;rounded=0;edgeStyle=orthogonalEdgeStyle;strokeColor=#7030A0;fontSize=12;jumpStyle=arc;fontFamily=Times New Roman;fontStyle=1" parent="1" source="FuuGoD6Wg4kEkZDujQi--4" target="FuuGoD6Wg4kEkZDujQi--1" edge="1">
          <mxGeometry width="50" height="50" relative="1" as="geometry">
            <mxPoint x="-135" y="-210" as="sourcePoint" />
            <mxPoint x="-185" y="-340" as="targetPoint" />
            <Array as="points">
              <mxPoint x="200" y="-130" />
            </Array>
          </mxGeometry>
        </mxCell>
        <mxCell id="FuuGoD6Wg4kEkZDujQi--50" value="Bản sao hóa đơn" style="text;html=1;align=center;verticalAlign=middle;resizable=0;points=[];autosize=1;strokeColor=none;fillColor=none;fontSize=12;rotation=0;fontStyle=1;fontFamily=Times New Roman;" parent="1" vertex="1">
          <mxGeometry x="-3" y="-195" width="110" height="30" as="geometry" />
        </mxCell>
        <mxCell id="FuuGoD6Wg4kEkZDujQi--51" value="Trạng thái đơn hàng" style="text;html=1;align=center;verticalAlign=middle;resizable=0;points=[];autosize=1;strokeColor=none;fillColor=none;fontSize=12;rotation=0;fontStyle=1;fontFamily=Times New Roman;" parent="1" vertex="1">
          <mxGeometry x="-20" y="-155" width="130" height="30" as="geometry" />
        </mxCell>
        <mxCell id="FuuGoD6Wg4kEkZDujQi--52" value="" style="endArrow=classic;html=1;rounded=0;edgeStyle=orthogonalEdgeStyle;strokeColor=#ED8137;fontSize=12;jumpStyle=arc;fontFamily=Times New Roman;fontStyle=1" parent="1" source="FuuGoD6Wg4kEkZDujQi--6" target="FuuGoD6Wg4kEkZDujQi--1" edge="1">
          <mxGeometry width="50" height="50" relative="1" as="geometry">
            <mxPoint x="-20" y="550" as="sourcePoint" />
            <mxPoint x="170" y="570" as="targetPoint" />
            <Array as="points">
              <mxPoint x="220" y="500" />
            </Array>
          </mxGeometry>
        </mxCell>
        <mxCell id="FuuGoD6Wg4kEkZDujQi--53" value="" style="endArrow=classic;html=1;rounded=0;edgeStyle=orthogonalEdgeStyle;strokeColor=#ED8137;fontSize=12;jumpStyle=arc;fontFamily=Times New Roman;fontStyle=1" parent="1" source="FuuGoD6Wg4kEkZDujQi--1" target="FuuGoD6Wg4kEkZDujQi--6" edge="1">
          <mxGeometry width="50" height="50" relative="1" as="geometry">
            <mxPoint x="155" y="610" as="sourcePoint" />
            <mxPoint x="-35" y="590" as="targetPoint" />
            <Array as="points">
              <mxPoint x="230" y="520" />
            </Array>
          </mxGeometry>
        </mxCell>
        <mxCell id="FuuGoD6Wg4kEkZDujQi--54" value="Thông tin giải quyết sự cố" style="text;html=1;align=center;verticalAlign=middle;resizable=0;points=[];autosize=1;strokeColor=none;fillColor=none;fontSize=12;rotation=0;fontStyle=1;fontFamily=Times New Roman;" parent="1" vertex="1">
          <mxGeometry x="-28" y="475" width="160" height="30" as="geometry" />
        </mxCell>
        <mxCell id="FuuGoD6Wg4kEkZDujQi--55" value="Biên bản giải quyết sự cố" style="text;html=1;align=center;verticalAlign=middle;resizable=0;points=[];autosize=1;strokeColor=none;fillColor=none;fontSize=12;rotation=0;fontStyle=1;fontFamily=Times New Roman;" parent="1" vertex="1">
          <mxGeometry x="-23" y="455" width="150" height="30" as="geometry" />
        </mxCell>
        <mxCell id="FuuGoD6Wg4kEkZDujQi--56" value="Thông tin sự cố" style="text;html=1;align=center;verticalAlign=middle;resizable=0;points=[];autosize=1;strokeColor=none;fillColor=none;fontSize=12;rotation=0;fontStyle=1;fontFamily=Times New Roman;" parent="1" vertex="1">
          <mxGeometry x="5" y="495" width="100" height="30" as="geometry" />
        </mxCell>
        <mxCell id="FuuGoD6Wg4kEkZDujQi--57" value="" style="endArrow=classic;html=1;rounded=0;edgeStyle=orthogonalEdgeStyle;strokeColor=#FFC000;fontSize=12;jumpStyle=arc;fontFamily=Times New Roman;fontStyle=1" parent="1" source="FuuGoD6Wg4kEkZDujQi--2" target="FuuGoD6Wg4kEkZDujQi--1" edge="1">
          <mxGeometry width="50" height="50" relative="1" as="geometry">
            <mxPoint x="390" y="540" as="sourcePoint" />
            <mxPoint x="240" y="540" as="targetPoint" />
            <Array as="points">
              <mxPoint x="270" y="420" />
            </Array>
          </mxGeometry>
        </mxCell>
        <mxCell id="FuuGoD6Wg4kEkZDujQi--58" value="" style="endArrow=classic;html=1;rounded=0;edgeStyle=orthogonalEdgeStyle;strokeColor=#FFC000;fontSize=12;jumpStyle=arc;fontFamily=Times New Roman;fontStyle=1" parent="1" source="FuuGoD6Wg4kEkZDujQi--2" target="FuuGoD6Wg4kEkZDujQi--1" edge="1">
          <mxGeometry width="50" height="50" relative="1" as="geometry">
            <mxPoint x="400" y="550" as="sourcePoint" />
            <mxPoint x="250" y="550" as="targetPoint" />
            <Array as="points">
              <mxPoint x="260" y="440" />
            </Array>
          </mxGeometry>
        </mxCell>
        <mxCell id="FuuGoD6Wg4kEkZDujQi--59" value="" style="endArrow=classic;html=1;rounded=0;edgeStyle=orthogonalEdgeStyle;strokeColor=#FFC000;fontSize=12;jumpStyle=arc;fontFamily=Times New Roman;fontStyle=1" parent="1" source="FuuGoD6Wg4kEkZDujQi--1" target="FuuGoD6Wg4kEkZDujQi--2" edge="1">
          <mxGeometry width="50" height="50" relative="1" as="geometry">
            <mxPoint x="260" y="560" as="sourcePoint" />
            <mxPoint x="410" y="560" as="targetPoint" />
            <Array as="points">
              <mxPoint x="250" y="480" />
              <mxPoint x="560" y="480" />
            </Array>
          </mxGeometry>
        </mxCell>
        <mxCell id="FuuGoD6Wg4kEkZDujQi--60" value="" style="endArrow=classic;html=1;rounded=0;edgeStyle=orthogonalEdgeStyle;strokeColor=#FFC000;fontSize=12;jumpStyle=arc;fontFamily=Times New Roman;fontStyle=1" parent="1" source="FuuGoD6Wg4kEkZDujQi--2" target="FuuGoD6Wg4kEkZDujQi--1" edge="1">
          <mxGeometry width="50" height="50" relative="1" as="geometry">
            <mxPoint x="490" y="490" as="sourcePoint" />
            <mxPoint x="310" y="290" as="targetPoint" />
            <Array as="points">
              <mxPoint x="280" y="400" />
            </Array>
          </mxGeometry>
        </mxCell>
        <mxCell id="FuuGoD6Wg4kEkZDujQi--61" value="Bản sao hóa đơn" style="text;html=1;align=center;verticalAlign=middle;resizable=0;points=[];autosize=1;strokeColor=none;fillColor=none;fontSize=12;rotation=0;fontStyle=1;fontFamily=Times New Roman;" parent="1" vertex="1">
          <mxGeometry x="365" y="335" width="110" height="30" as="geometry" />
        </mxCell>
        <mxCell id="FuuGoD6Wg4kEkZDujQi--62" value="Kết quả tra cứu nguyên vật liệu" style="text;html=1;align=center;verticalAlign=middle;resizable=0;points=[];autosize=1;strokeColor=none;fillColor=none;fontSize=12;rotation=0;fontStyle=1;fontFamily=Times New Roman;" parent="1" vertex="1">
          <mxGeometry x="310" y="455" width="190" height="30" as="geometry" />
        </mxCell>
        <mxCell id="FuuGoD6Wg4kEkZDujQi--63" value="Thông tin tra cứu nguyên vật liệu" style="text;html=1;align=center;verticalAlign=middle;resizable=0;points=[];autosize=1;strokeColor=none;fillColor=none;fontSize=12;rotation=0;fontStyle=1;fontFamily=Times New Roman;" parent="1" vertex="1">
          <mxGeometry x="280" y="375" width="200" height="30" as="geometry" />
        </mxCell>
        <mxCell id="FuuGoD6Wg4kEkZDujQi--64" value="Thông tin tồn kho" style="text;html=1;align=center;verticalAlign=middle;resizable=0;points=[];autosize=1;strokeColor=none;fillColor=none;fontSize=12;rotation=0;fontStyle=1;fontFamily=Times New Roman;" parent="1" vertex="1">
          <mxGeometry x="310" y="415" width="120" height="30" as="geometry" />
        </mxCell>
        <mxCell id="FuuGoD6Wg4kEkZDujQi--65" value="Thông tin nhập hàng" style="text;html=1;align=center;verticalAlign=middle;resizable=0;points=[];autosize=1;strokeColor=none;fillColor=none;fontSize=12;rotation=0;fontStyle=1;fontFamily=Times New Roman;" parent="1" vertex="1">
          <mxGeometry x="310" y="395" width="130" height="30" as="geometry" />
        </mxCell>
        <mxCell id="FuuGoD6Wg4kEkZDujQi--66" value="" style="endArrow=classic;html=1;rounded=0;edgeStyle=orthogonalEdgeStyle;strokeColor=#FF0000;fontSize=12;jumpStyle=arc;fontFamily=Times New Roman;fontStyle=1" parent="1" source="FuuGoD6Wg4kEkZDujQi--7" target="FuuGoD6Wg4kEkZDujQi--1" edge="1">
          <mxGeometry width="50" height="50" relative="1" as="geometry">
            <mxPoint x="470" y="-220" as="sourcePoint" />
            <mxPoint x="320" y="-220" as="targetPoint" />
            <Array as="points">
              <mxPoint x="550" y="120" />
            </Array>
          </mxGeometry>
        </mxCell>
        <mxCell id="FuuGoD6Wg4kEkZDujQi--67" value="" style="endArrow=classic;html=1;rounded=0;edgeStyle=orthogonalEdgeStyle;strokeColor=#FF0000;fontSize=12;jumpStyle=arc;fontFamily=Times New Roman;fontStyle=1" parent="1" source="FuuGoD6Wg4kEkZDujQi--7" target="FuuGoD6Wg4kEkZDujQi--1" edge="1">
          <mxGeometry width="50" height="50" relative="1" as="geometry">
            <mxPoint x="450" y="-200" as="sourcePoint" />
            <mxPoint x="300" y="-200" as="targetPoint" />
            <Array as="points">
              <mxPoint x="400" y="160" />
              <mxPoint x="400" y="160" />
            </Array>
          </mxGeometry>
        </mxCell>
        <mxCell id="FuuGoD6Wg4kEkZDujQi--68" value="" style="endArrow=classic;html=1;rounded=0;edgeStyle=orthogonalEdgeStyle;strokeColor=#FF0000;fontSize=12;jumpStyle=arc;fontFamily=Times New Roman;fontStyle=1" parent="1" source="FuuGoD6Wg4kEkZDujQi--1" target="FuuGoD6Wg4kEkZDujQi--7" edge="1">
          <mxGeometry width="50" height="50" relative="1" as="geometry">
            <mxPoint x="285" y="-190" as="sourcePoint" />
            <mxPoint x="435" y="-190" as="targetPoint" />
            <Array as="points">
              <mxPoint x="380" y="180" />
              <mxPoint x="380" y="180" />
            </Array>
          </mxGeometry>
        </mxCell>
        <mxCell id="FuuGoD6Wg4kEkZDujQi--69" value="" style="endArrow=classic;html=1;rounded=0;edgeStyle=orthogonalEdgeStyle;strokeColor=#FF0000;fontSize=12;jumpStyle=arc;fontFamily=Times New Roman;fontStyle=1" parent="1" source="FuuGoD6Wg4kEkZDujQi--7" target="FuuGoD6Wg4kEkZDujQi--1" edge="1">
          <mxGeometry width="50" height="50" relative="1" as="geometry">
            <mxPoint x="450" y="-160.29" as="sourcePoint" />
            <mxPoint x="300" y="-160.29" as="targetPoint" />
            <Array as="points">
              <mxPoint x="390" y="200" />
              <mxPoint x="390" y="200" />
            </Array>
          </mxGeometry>
        </mxCell>
        <mxCell id="FuuGoD6Wg4kEkZDujQi--70" value="" style="endArrow=classic;html=1;rounded=0;edgeStyle=orthogonalEdgeStyle;strokeColor=#FF0000;fontSize=12;jumpStyle=arc;fontFamily=Times New Roman;fontStyle=1" parent="1" source="FuuGoD6Wg4kEkZDujQi--7" target="FuuGoD6Wg4kEkZDujQi--1" edge="1">
          <mxGeometry width="50" height="50" relative="1" as="geometry">
            <mxPoint x="460" y="-180.69" as="sourcePoint" />
            <mxPoint x="310" y="-180.69" as="targetPoint" />
            <Array as="points">
              <mxPoint x="550" y="240" />
            </Array>
          </mxGeometry>
        </mxCell>
        <mxCell id="FuuGoD6Wg4kEkZDujQi--71" value="" style="endArrow=classic;html=1;rounded=0;edgeStyle=orthogonalEdgeStyle;strokeColor=#FF0000;fontSize=12;jumpStyle=arc;fontFamily=Times New Roman;fontStyle=1" parent="1" source="FuuGoD6Wg4kEkZDujQi--1" target="FuuGoD6Wg4kEkZDujQi--7" edge="1">
          <mxGeometry width="50" height="50" relative="1" as="geometry">
            <mxPoint x="350" y="-210" as="sourcePoint" />
            <mxPoint x="500" y="-210" as="targetPoint" />
            <Array as="points">
              <mxPoint x="570" y="260" />
            </Array>
          </mxGeometry>
        </mxCell>
        <mxCell id="FuuGoD6Wg4kEkZDujQi--72" value="Kết quả tra cứu đơn hàng" style="text;html=1;align=center;verticalAlign=middle;resizable=0;points=[];autosize=1;strokeColor=none;fillColor=none;fontSize=12;rotation=0;fontStyle=1;fontFamily=Times New Roman;" parent="1" vertex="1">
          <mxGeometry x="360" y="235" width="160" height="30" as="geometry" />
        </mxCell>
        <mxCell id="FuuGoD6Wg4kEkZDujQi--73" value="Thông tin tra cứu đơn hàng" style="text;html=1;align=center;verticalAlign=middle;resizable=0;points=[];autosize=1;strokeColor=none;fillColor=none;fontSize=12;rotation=0;fontStyle=1;fontFamily=Times New Roman;" parent="1" vertex="1">
          <mxGeometry x="344" y="215" width="170" height="30" as="geometry" />
        </mxCell>
        <mxCell id="FuuGoD6Wg4kEkZDujQi--74" value="Tài khoản nhân viên" style="text;html=1;align=center;verticalAlign=middle;resizable=0;points=[];autosize=1;strokeColor=none;fillColor=none;fontSize=12;rotation=0;fontStyle=1;fontFamily=Times New Roman;" parent="1" vertex="1">
          <mxGeometry x="375" y="75" width="130" height="30" as="geometry" />
        </mxCell>
        <mxCell id="FuuGoD6Wg4kEkZDujQi--75" value="Thông tin nhân viên" style="text;html=1;align=center;verticalAlign=middle;resizable=0;points=[];autosize=1;strokeColor=none;fillColor=none;fontSize=12;rotation=0;fontStyle=1;fontFamily=Times New Roman;" parent="1" vertex="1">
          <mxGeometry x="365" y="95" width="130" height="30" as="geometry" />
        </mxCell>
        <mxCell id="FuuGoD6Wg4kEkZDujQi--76" value="Thông tin hóa đơn" style="text;html=1;align=center;verticalAlign=middle;resizable=0;points=[];autosize=1;strokeColor=none;fillColor=none;fontSize=12;rotation=0;fontStyle=1;fontFamily=Times New Roman;" parent="1" vertex="1">
          <mxGeometry x="340" y="135" width="120" height="30" as="geometry" />
        </mxCell>
        <mxCell id="FuuGoD6Wg4kEkZDujQi--77" value="Thông tin đơn hàng" style="text;html=1;align=center;verticalAlign=middle;resizable=0;points=[];autosize=1;strokeColor=none;fillColor=none;fontSize=12;rotation=0;fontStyle=1;fontFamily=Times New Roman;" parent="1" vertex="1">
          <mxGeometry x="330" y="155" width="130" height="30" as="geometry" />
        </mxCell>
        <mxCell id="FuuGoD6Wg4kEkZDujQi--78" value="Thông tin mới của đơn hàng" style="text;html=1;align=center;verticalAlign=middle;resizable=0;points=[];autosize=1;strokeColor=none;fillColor=none;fontSize=12;rotation=0;fontStyle=1;fontFamily=Times New Roman;" parent="1" vertex="1">
          <mxGeometry x="310" y="175" width="170" height="30" as="geometry" />
        </mxCell>
        <mxCell id="FuuGoD6Wg4kEkZDujQi--79" value="" style="endArrow=classic;html=1;rounded=0;strokeColor=#4472C4;edgeStyle=orthogonalEdgeStyle;fontSize=12;fontStyle=1;fontFamily=Times New Roman;" parent="1" source="FuuGoD6Wg4kEkZDujQi--3" target="FuuGoD6Wg4kEkZDujQi--1" edge="1">
          <mxGeometry width="50" height="50" relative="1" as="geometry">
            <mxPoint x="-170" y="150" as="sourcePoint" />
            <mxPoint x="140" y="90" as="targetPoint" />
            <Array as="points">
              <mxPoint x="-160" />
              <mxPoint x="140" />
            </Array>
          </mxGeometry>
        </mxCell>
        <mxCell id="FuuGoD6Wg4kEkZDujQi--80" value="" style="endArrow=classic;html=1;rounded=0;strokeColor=#4472C4;edgeStyle=orthogonalEdgeStyle;fontSize=12;fontStyle=1;fontFamily=Times New Roman;" parent="1" source="FuuGoD6Wg4kEkZDujQi--3" target="FuuGoD6Wg4kEkZDujQi--1" edge="1">
          <mxGeometry width="50" height="50" relative="1" as="geometry">
            <mxPoint x="-190" y="150" as="sourcePoint" />
            <mxPoint x="150" y="90" as="targetPoint" />
            <Array as="points">
              <mxPoint x="-180" y="-20" />
              <mxPoint x="150" y="-20" />
            </Array>
          </mxGeometry>
        </mxCell>
        <mxCell id="FuuGoD6Wg4kEkZDujQi--81" value="" style="endArrow=classic;html=1;rounded=0;strokeColor=#4472C4;edgeStyle=orthogonalEdgeStyle;fontSize=12;fontStyle=1;fontFamily=Times New Roman;" parent="1" source="FuuGoD6Wg4kEkZDujQi--3" target="FuuGoD6Wg4kEkZDujQi--1" edge="1">
          <mxGeometry width="50" height="50" relative="1" as="geometry">
            <mxPoint x="-210" y="150" as="sourcePoint" />
            <mxPoint x="160" y="90" as="targetPoint" />
            <Array as="points">
              <mxPoint x="-200" y="-40" />
              <mxPoint x="160" y="-40" />
            </Array>
          </mxGeometry>
        </mxCell>
        <mxCell id="FuuGoD6Wg4kEkZDujQi--82" value="Thông tin mới của ưu đãi, khuyến mãi" style="text;html=1;align=center;verticalAlign=middle;resizable=0;points=[];autosize=1;strokeColor=none;fillColor=none;fontSize=12;rotation=0;fontStyle=1;fontFamily=Times New Roman;" parent="1" vertex="1">
          <mxGeometry x="-135" y="-25" width="220" height="30" as="geometry" />
        </mxCell>
        <mxCell id="FuuGoD6Wg4kEkZDujQi--83" value="Thông tin mới của nhân viên" style="text;html=1;align=center;verticalAlign=middle;resizable=0;points=[];autosize=1;strokeColor=none;fillColor=none;fontSize=12;rotation=0;fontStyle=1;fontFamily=Times New Roman;" parent="1" vertex="1">
          <mxGeometry x="-110" y="-45" width="170" height="30" as="geometry" />
        </mxCell>
        <mxCell id="FuuGoD6Wg4kEkZDujQi--84" value="Thông tin mới của khách hàng" style="text;html=1;align=center;verticalAlign=middle;resizable=0;points=[];autosize=1;strokeColor=none;fillColor=none;fontSize=12;rotation=0;fontStyle=1;fontFamily=Times New Roman;" parent="1" vertex="1">
          <mxGeometry x="-127" y="-65" width="180" height="30" as="geometry" />
        </mxCell>
        <mxCell id="FuuGoD6Wg4kEkZDujQi--85" value="" style="endArrow=classic;html=1;rounded=0;edgeStyle=orthogonalEdgeStyle;strokeColor=#00B050;fontSize=12;jumpStyle=arc;fontStyle=1;fontFamily=Times New Roman;" parent="1" source="FuuGoD6Wg4kEkZDujQi--5" target="FuuGoD6Wg4kEkZDujQi--1" edge="1">
          <mxGeometry width="50" height="50" relative="1" as="geometry">
            <mxPoint x="460" y="-141" as="sourcePoint" />
            <mxPoint x="300" y="-141.00000000000023" as="targetPoint" />
            <Array as="points">
              <mxPoint x="250" y="-90" />
            </Array>
          </mxGeometry>
        </mxCell>
        <mxCell id="FuuGoD6Wg4kEkZDujQi--86" value="" style="endArrow=classic;html=1;rounded=0;edgeStyle=orthogonalEdgeStyle;strokeColor=#00B050;fontSize=12;jumpStyle=arc;fontStyle=1;fontFamily=Times New Roman;" parent="1" source="FuuGoD6Wg4kEkZDujQi--1" target="FuuGoD6Wg4kEkZDujQi--5" edge="1">
          <mxGeometry width="50" height="50" relative="1" as="geometry">
            <mxPoint x="250" y="-141.00000000000023" as="sourcePoint" />
            <mxPoint x="410" y="-141" as="targetPoint" />
            <Array as="points">
              <mxPoint x="260" y="-70" />
            </Array>
          </mxGeometry>
        </mxCell>
        <mxCell id="FuuGoD6Wg4kEkZDujQi--87" value="" style="endArrow=classic;html=1;rounded=0;edgeStyle=orthogonalEdgeStyle;strokeColor=#00B050;fontSize=12;jumpStyle=arc;fontStyle=1;fontFamily=Times New Roman;" parent="1" source="FuuGoD6Wg4kEkZDujQi--5" target="FuuGoD6Wg4kEkZDujQi--1" edge="1">
          <mxGeometry width="50" height="50" relative="1" as="geometry">
            <mxPoint x="430" y="-105" as="sourcePoint" />
            <mxPoint x="270" y="-105.00000000000023" as="targetPoint" />
            <Array as="points">
              <mxPoint x="270" y="-50" />
            </Array>
          </mxGeometry>
        </mxCell>
        <mxCell id="FuuGoD6Wg4kEkZDujQi--88" value="" style="endArrow=classic;html=1;rounded=0;edgeStyle=orthogonalEdgeStyle;strokeColor=#00B050;fontSize=12;jumpStyle=arc;fontStyle=1;fontFamily=Times New Roman;" parent="1" source="FuuGoD6Wg4kEkZDujQi--5" target="FuuGoD6Wg4kEkZDujQi--1" edge="1">
          <mxGeometry width="50" height="50" relative="1" as="geometry">
            <mxPoint x="440" y="-65" as="sourcePoint" />
            <mxPoint x="280" y="-65.00000000000023" as="targetPoint" />
            <Array as="points">
              <mxPoint x="280" y="-30" />
            </Array>
          </mxGeometry>
        </mxCell>
        <mxCell id="FuuGoD6Wg4kEkZDujQi--89" value="" style="endArrow=classic;html=1;rounded=0;edgeStyle=orthogonalEdgeStyle;strokeColor=#00B050;fontSize=12;jumpStyle=arc;fontStyle=1;fontFamily=Times New Roman;" parent="1" source="FuuGoD6Wg4kEkZDujQi--1" target="FuuGoD6Wg4kEkZDujQi--5" edge="1">
          <mxGeometry width="50" height="50" relative="1" as="geometry">
            <mxPoint x="330" y="4.999999999999773" as="sourcePoint" />
            <mxPoint x="490" y="5" as="targetPoint" />
            <Array as="points">
              <mxPoint x="290" />
              <mxPoint x="560" />
            </Array>
          </mxGeometry>
        </mxCell>
        <mxCell id="FuuGoD6Wg4kEkZDujQi--94" value="Xác nhận giao hàng" style="text;html=1;align=center;verticalAlign=middle;resizable=0;points=[];autosize=1;strokeColor=none;fillColor=none;fontSize=12;rotation=0;fontStyle=1;fontFamily=Times New Roman;" parent="1" vertex="1">
          <mxGeometry x="-20" y="-174" width="130" height="30" as="geometry" />
        </mxCell>
        <mxCell id="FuuGoD6Wg4kEkZDujQi--95" value="" style="endArrow=classic;html=1;rounded=0;edgeStyle=orthogonalEdgeStyle;strokeColor=#7030A0;fontSize=12;jumpStyle=arc;fontFamily=Times New Roman;fontStyle=1" parent="1" source="FuuGoD6Wg4kEkZDujQi--4" target="FuuGoD6Wg4kEkZDujQi--1" edge="1">
          <mxGeometry width="50" height="50" relative="1" as="geometry">
            <mxPoint x="-70" y="-85" as="sourcePoint" />
            <mxPoint x="200" y="65" as="targetPoint" />
            <Array as="points">
              <mxPoint x="210" y="-150" />
            </Array>
          </mxGeometry>
        </mxCell>
        <mxCell id="FuuGoD6Wg4kEkZDujQi--96" value="" style="endArrow=classic;html=1;rounded=0;strokeColor=#4472C4;edgeStyle=orthogonalEdgeStyle;fontSize=12;fontStyle=1;fontFamily=Times New Roman;" parent="1" source="FuuGoD6Wg4kEkZDujQi--3" target="FuuGoD6Wg4kEkZDujQi--1" edge="1">
          <mxGeometry width="50" height="50" relative="1" as="geometry">
            <mxPoint x="-190" y="230" as="sourcePoint" />
            <mxPoint x="180" y="290" as="targetPoint" />
            <Array as="points">
              <mxPoint x="-220" y="420" />
              <mxPoint x="180" y="420" />
            </Array>
          </mxGeometry>
        </mxCell>
        <mxCell id="FuuGoD6Wg4kEkZDujQi--97" value="" style="endArrow=classic;html=1;rounded=0;strokeColor=#4472C4;edgeStyle=orthogonalEdgeStyle;fontSize=12;fontStyle=1;fontFamily=Times New Roman;" parent="1" source="FuuGoD6Wg4kEkZDujQi--1" target="FuuGoD6Wg4kEkZDujQi--3" edge="1">
          <mxGeometry width="50" height="50" relative="1" as="geometry">
            <mxPoint x="190" y="290" as="sourcePoint" />
            <mxPoint x="-200" y="230" as="targetPoint" />
            <Array as="points">
              <mxPoint x="190" y="440" />
              <mxPoint x="-240" y="440" />
            </Array>
          </mxGeometry>
        </mxCell>
        <mxCell id="FuuGoD6Wg4kEkZDujQi--98" value="" style="endArrow=classic;html=1;rounded=0;strokeColor=#4472C4;edgeStyle=orthogonalEdgeStyle;fontSize=12;fontStyle=1;fontFamily=Times New Roman;" parent="1" source="FuuGoD6Wg4kEkZDujQi--3" target="FuuGoD6Wg4kEkZDujQi--1" edge="1">
          <mxGeometry width="50" height="50" relative="1" as="geometry">
            <mxPoint x="-190" y="150" as="sourcePoint" />
            <mxPoint x="170" y="90" as="targetPoint" />
            <Array as="points">
              <mxPoint x="-220" y="-60" />
              <mxPoint x="170" y="-60" />
            </Array>
          </mxGeometry>
        </mxCell>
        <mxCell id="FuuGoD6Wg4kEkZDujQi--99" value="" style="endArrow=classic;html=1;rounded=0;strokeColor=#4472C4;edgeStyle=orthogonalEdgeStyle;fontSize=12;fontStyle=1;fontFamily=Times New Roman;" parent="1" source="FuuGoD6Wg4kEkZDujQi--3" target="FuuGoD6Wg4kEkZDujQi--1" edge="1">
          <mxGeometry width="50" height="50" relative="1" as="geometry">
            <mxPoint x="-210" y="150" as="sourcePoint" />
            <mxPoint x="180" y="90" as="targetPoint" />
            <Array as="points">
              <mxPoint x="-240" y="-80" />
              <mxPoint x="180" y="-80" />
            </Array>
          </mxGeometry>
        </mxCell>
        <mxCell id="FuuGoD6Wg4kEkZDujQi--100" value="Thông tin lịch làm việc của nhân viên" style="text;html=1;align=center;verticalAlign=middle;resizable=0;points=[];autosize=1;strokeColor=none;fillColor=none;fontSize=12;rotation=0;fontStyle=1;fontFamily=Times New Roman;" parent="1" vertex="1">
          <mxGeometry x="-135" y="-106" width="220" height="30" as="geometry" />
        </mxCell>
        <mxCell id="FuuGoD6Wg4kEkZDujQi--101" value="Thông tin lịch làm việc mới của nhân viên" style="text;html=1;align=center;verticalAlign=middle;resizable=0;points=[];autosize=1;strokeColor=none;fillColor=none;fontSize=12;rotation=0;fontStyle=1;fontFamily=Times New Roman;" parent="1" vertex="1">
          <mxGeometry x="-140" y="-86" width="240" height="30" as="geometry" />
        </mxCell>
        <mxCell id="FuuGoD6Wg4kEkZDujQi--102" value="Thông tin tra cứu lịch làm việc nhân viên" style="text;html=1;align=center;verticalAlign=middle;resizable=0;points=[];autosize=1;strokeColor=none;fillColor=none;fontSize=12;rotation=0;fontStyle=1;fontFamily=Times New Roman;" parent="1" vertex="1">
          <mxGeometry x="-160" y="395" width="230" height="30" as="geometry" />
        </mxCell>
        <mxCell id="FuuGoD6Wg4kEkZDujQi--103" value="Kết quả tra cứu lịch làm việc nhân viên" style="text;html=1;align=center;verticalAlign=middle;resizable=0;points=[];autosize=1;strokeColor=none;fillColor=none;fontSize=12;rotation=0;fontStyle=1;fontFamily=Times New Roman;" parent="1" vertex="1">
          <mxGeometry x="-150" y="415" width="230" height="30" as="geometry" />
        </mxCell>
      </root>
    </mxGraphModel>
  </diagram>
</mxfile>
